<svg xmlns="http://www.w3.org/2000/svg" width="18" height="18" viewBox="0 0 18 18" fill="none">
  <g clip-path="url(#clip0_621_828)">
    <path d="M9.00032 0C4.02969 0 0 4.02969 0 9.00032C0 13.971 4.02969 18 9.00032 18C13.971 18 18 13.971 18 9.00032C18 4.02969 13.971 0 9.00032 0ZM9.00032 16.4112C4.90703 16.4112 1.5888 13.093 1.5888 9.00032C1.5888 4.90767 4.90703 1.5888 9.00032 1.5888C13.0936 1.5888 16.4112 4.90703 16.4112 9.00032C16.4112 13.0936 13.093 16.4112 9.00032 16.4112Z" fill="white"/>
    <path d="M13.6034 7.02223L7.56913 13.0565C7.27476 13.3509 6.79726 13.3509 6.5029 13.0565L4.40368 10.9573C4.07447 10.6281 4.06648 10.0809 4.40208 9.75812C4.72744 9.44522 5.24458 9.44905 5.56515 9.76962L7.03601 11.2405L12.4289 5.84765C12.7533 5.52324 13.279 5.52324 13.6034 5.84765C13.9278 6.17205 13.9278 6.69782 13.6034 7.02223Z" fill="white"/>
  </g>
  <defs>
    <clipPath id="clip0_621_828">
      <rect width="18" height="18" fill="white"/>
    </clipPath>
  </defs>
</svg>