<svg width="489" height="388" viewBox="0 0 489 388" fill="none" xmlns="http://www.w3.org/2000/svg">
<path opacity="0.64" d="M326.23 264.496L275.112 249.76L277.549 241.304C293.061 187.495 358.538 194.298 367.513 163.166C371.391 149.714 364.604 138.599 345.002 132.948C316.945 124.86 285.158 136.928 271.928 178.49L239.127 131.984C254.455 86.0319 308.072 66.1038 363.419 82.0584C417.612 97.6806 441.217 129.879 429.029 172.157C412.41 229.81 340.634 214.53 327.892 258.731L326.23 264.496ZM305.484 348.017L247.063 331.176L264.236 271.602L322.657 288.443L305.484 348.017Z" fill="url(#paint0_linear_933_425)"/>
<path opacity="0.64" d="M182.108 242.288L116.209 251.209L114.733 240.308C105.343 170.941 183.665 145.706 178.232 105.572C175.885 88.2299 162.518 78.9391 137.248 82.3599C101.078 87.2563 70.8062 117.087 76.6308 171.295L15.6628 134.643C10.0243 74.3544 61.3032 24.525 132.652 14.8664C202.515 5.4089 245.75 30.3344 253.128 84.8372C263.189 159.159 173.388 177.875 181.102 234.855L182.108 242.288ZM200.492 348.279L125.179 358.475L114.783 281.675L190.096 271.48L200.492 348.279Z" fill="url(#paint1_linear_933_425)"/>
<defs>
<linearGradient id="paint0_linear_933_425" x1="366.846" y1="113.852" x2="298.153" y2="352.148" gradientUnits="userSpaceOnUse">
<stop stop-color="white" stop-opacity="0"/>
<stop offset="1" stop-color="white"/>
</linearGradient>
<linearGradient id="paint1_linear_933_425" x1="125.357" y1="83.9697" x2="158.625" y2="329.728" gradientUnits="userSpaceOnUse">
<stop stop-color="white"/>
<stop offset="1" stop-color="white" stop-opacity="0"/>
</linearGradient>
</defs>
</svg>
